<svg width="40" height="41" viewBox="0 0 40 41" fill="none" xmlns="http://www.w3.org/2000/svg">
<g id="Group 8">
<path id="Fill 1" fill-rule="evenodd" clip-rule="evenodd" d="M29.202 39.6062H11.1655C5.2095 39.6062 0.380981 34.7777 0.380981 28.8212V10.7852C0.380981 4.82876 5.2095 0.000244141 11.1655 0.000244141H29.202C35.158 0.000244141 39.9865 4.82876 39.9865 10.7852V28.8212C39.9865 34.7777 35.158 39.6062 29.202 39.6062Z" fill="#4E05B2"/>
<path id="Fill 6" fill-rule="evenodd" clip-rule="evenodd" d="M24.9515 25.1033C24.9515 21.7809 23.9625 20.9504 20.5614 20.9112H16.1317V28.8209H20.7194C24.0025 28.8209 24.9515 28.1484 24.9515 25.1033ZM20.2057 9.99554H16.1317V16.9167H20.5218C23.4485 16.9167 24.3582 16.2046 24.3582 13.3963C24.3582 10.628 23.3693 9.99554 20.2057 9.99554ZM31.0022 26.2502C31.0022 31.866 28.2738 33.369 21.7479 33.369C16.5273 33.369 13.6798 33.3294 10.2394 33.0526V5.76346C13.3241 5.48663 15.8948 5.44702 20.4825 5.44702C27.601 5.44702 30.1325 6.94999 30.1325 12.5658C30.1325 16.4815 28.7483 18.4985 25.3467 18.8149V18.973C29.5392 19.329 31.0022 21.8997 31.0022 26.2502Z" fill="white"/>
</g>
</svg>
